<svg xmlns="http://www.w3.org/2000/svg" width="166" height="42" fill="none"><path fill="url(#a)" d="M10.157 23.534c-3.065-1.992-5.955-3.18-9.23-6.727a14.508 14.508 0 0 0-.555 5.209c2.156-.594 5.838-.958 9.785 1.518Z"/><path fill="url(#b)" d="M11.99 39.504a3.061 3.061 0 0 1-.308 1.155c1.553-1.923 2.945-4.02 3.583-6.364.639-2.344.444-4.976-.985-6.983a11.97 11.97 0 0 0-1.233-1.449 18.497 18.497 0 0 0-.727-.689c-.03-.027-.06-.055-.092-.082l-.008-.007a17.531 17.531 0 0 0-1.884-1.434l-.18-.117C6.21 21.058 2.529 21.422.373 22.016c11.577 8.37 12.016 14.936 11.617 17.488Z"/><path fill="url(#c)" d="M.372 22.016s5.105 3.912 8.907 11.568c.965.822 1.726 1.845 2.127 2.987.335.953.653 1.967.583 2.933.4-2.552-.04-9.117-11.617-17.488Z"/><path fill="url(#d)" d="M.372 22.016c.234 3.038 1.46 5.966 3.813 8.01 1.102.957 3.468 2.327 4.645 3.2.154.115.304.234.45.358C5.476 25.928.371 22.016.371 22.016Z"/><path fill="url(#e)" d="M17.622 22.242C10.216 15.473 6.77 6.212 5.876 3.488a4.479 4.479 0 0 1-.242-.782A3.47 3.47 0 0 1 5.69 1S-2.1 8.975 11 22.817l-.003-.002c1.159.823 2.268 1.7 3.245 2.712.05.051.099.103.147.155.536-1.585 1.731-2.684 3.233-3.44Z"/><path fill="url(#f)" d="M14.574 11.421c-1.845-1.354-4.481-3.168-6.208-4.72-1.016-.912-2-2.016-2.49-3.213.894 2.723 4.34 11.985 11.747 18.754 1.277-.642 2.777-1.037 4.28-1.27-.541-4.463-3.263-6.566-7.33-9.55Z"/><path fill="url(#g)" d="M5.69 1C3.328 2.136 1.458 4.158.58 6.523a9.479 9.479 0 0 0 .339 7.334c1.26 2.634 3.668 4.608 6.143 6.304 1.302.892 2.65 1.74 3.935 2.654l.004.002C-2.1 8.975 5.69 1 5.69 1Z"/><path fill="url(#h)" d="M17.18 33.417a14.924 14.924 0 0 0 4.535-8.006 31 31 0 0 1-4.093-3.169c-1.502.756-2.697 1.855-3.232 3.44 1.982 2.12 3.34 4.96 2.79 7.735Z"/><path fill="url(#i)" d="M21.715 25.412c.291-1.436.366-2.911.198-4.366l-.01-.074c-1.504.233-3.003.628-4.28 1.27a31.002 31.002 0 0 0 4.092 3.17Z"/><path fill="#01081B" d="m31.681 31 3.808-19.6h2.829l4.774 12.558L47.865 11.4h2.828L54.502 31h-3.486l-2.352-12.124-4.41 11.676h-2.338l-4.41-11.676L35.166 31H31.68Zm30.852.364a6.54 6.54 0 0 1-3.528-.994 7.452 7.452 0 0 1-2.534-2.66c-.625-1.12-.938-2.357-.938-3.71 0-1.027.182-1.983.546-2.87a7.499 7.499 0 0 1 1.498-2.352 7.026 7.026 0 0 1 2.24-1.596 6.535 6.535 0 0 1 2.716-.574c1.288 0 2.46.331 3.514.994a7.266 7.266 0 0 1 2.534 2.674c.635 1.12.952 2.361.952 3.724 0 1.017-.182 1.97-.546 2.856a7.584 7.584 0 0 1-1.512 2.352 6.97 6.97 0 0 1-2.226 1.582 6.473 6.473 0 0 1-2.716.574Zm0-3.416c.681 0 1.292-.182 1.834-.546a3.81 3.81 0 0 0 1.274-1.442c.317-.597.476-1.25.476-1.96 0-.728-.163-1.39-.49-1.988a3.743 3.743 0 0 0-1.302-1.442 3.143 3.143 0 0 0-1.792-.546c-.672 0-1.279.182-1.82.546-.541.364-.97.85-1.288 1.456A4.194 4.194 0 0 0 58.949 24c0 .737.163 1.405.49 2.002.327.597.76 1.073 1.302 1.428a3.31 3.31 0 0 0 1.792.518Zm22.004-5.796V31H81.12v-7.952c0-.55-.136-1.05-.406-1.498a2.951 2.951 0 0 0-1.092-1.078 2.84 2.84 0 0 0-1.498-.406c-.551 0-1.055.135-1.512.406-.448.261-.808.62-1.078 1.078a2.918 2.918 0 0 0-.392 1.498V31h-3.416l-.014-14h3.416l.014 1.246a5.159 5.159 0 0 1 1.708-1.19 5.152 5.152 0 0 1 2.142-.448c1.017 0 1.946.252 2.786.756a5.563 5.563 0 0 1 2.002 2.002c.504.83.756 1.76.756 2.786ZM99.91 31h-3.934l-3.192-5.502-1.96 2.338V31h-3.416V10h3.416v12.53L95.458 17h4.466l-4.802 5.726L99.91 31Zm6.011.252a7.744 7.744 0 0 1-2.114-.434 6.268 6.268 0 0 1-1.792-1.022 4.374 4.374 0 0 1-1.204-1.54l2.884-1.232c.112.187.294.387.546.602.252.205.551.378.896.518.355.14.742.21 1.162.21.355 0 .691-.047 1.008-.14.327-.103.588-.257.784-.462.205-.205.308-.471.308-.798 0-.345-.121-.611-.364-.798a2.231 2.231 0 0 0-.896-.434c-.355-.103-.7-.196-1.036-.28a10.169 10.169 0 0 1-2.478-.826c-.756-.373-1.367-.854-1.834-1.442-.457-.597-.686-1.316-.686-2.156 0-.924.243-1.722.728-2.394a4.9 4.9 0 0 1 1.918-1.554 6.067 6.067 0 0 1 2.562-.546c1.111 0 2.128.233 3.052.7a5.398 5.398 0 0 1 2.212 1.946l-2.702 1.596a2.25 2.25 0 0 0-.546-.616 2.955 2.955 0 0 0-.798-.476 2.707 2.707 0 0 0-.938-.224 3.75 3.75 0 0 0-1.148.112 1.779 1.779 0 0 0-.84.476c-.205.224-.308.523-.308.896 0 .355.14.62.42.798.28.168.616.299 1.008.392.401.093.784.196 1.148.308.821.27 1.591.602 2.31.994.728.392 1.311.873 1.75 1.442.439.57.649 1.25.63 2.044 0 .905-.271 1.699-.812 2.38-.541.672-1.241 1.185-2.1 1.54a5.823 5.823 0 0 1-2.73.42ZM120.685 31V11.4h7c1.064 0 2.026.266 2.884.798a5.92 5.92 0 0 1 2.814 5.096c0 1.101-.261 2.1-.784 2.996a5.954 5.954 0 0 1-2.072 2.128 5.407 5.407 0 0 1-2.842.784h-3.584V31h-3.416Zm3.416-11.214h3.22c.486 0 .929-.121 1.33-.364.402-.243.719-.57.952-.98.243-.41.364-.868.364-1.372a2.67 2.67 0 0 0-.364-1.386 2.656 2.656 0 0 0-.952-.98 2.519 2.519 0 0 0-1.33-.364h-3.22v5.446ZM145.542 17h3.416v14h-3.416l-.154-1.736a4.588 4.588 0 0 1-1.526 1.526c-.625.383-1.367.574-2.226.574a7.248 7.248 0 0 1-2.912-.588 7.663 7.663 0 0 1-2.394-1.624 7.783 7.783 0 0 1-1.61-2.394 7.396 7.396 0 0 1-.574-2.912c0-.999.182-1.937.546-2.814a7.293 7.293 0 0 1 3.85-3.864 7.01 7.01 0 0 1 2.8-.56c.924 0 1.75.205 2.478.616.737.41 1.363.933 1.876 1.568L145.542 17Zm-3.99 11.074c.728 0 1.372-.182 1.932-.546.56-.364.999-.854 1.316-1.47a4.486 4.486 0 0 0 .476-2.058 4.43 4.43 0 0 0-.476-2.058 3.724 3.724 0 0 0-1.33-1.484c-.56-.364-1.199-.546-1.918-.546a3.65 3.65 0 0 0-1.974.56 4.112 4.112 0 0 0-1.414 1.47 4.14 4.14 0 0 0-.518 2.058c0 .756.177 1.442.532 2.058a4.112 4.112 0 0 0 1.414 1.47 3.696 3.696 0 0 0 1.96.546ZM160.586 17h3.626l-7.658 21h-3.626l2.534-7-5.04-14h3.738l3.01 9.324L160.586 17Z"/><defs><linearGradient id="a" x1=".3" x2="10.03" y1="20.338" y2="19.99" gradientUnits="userSpaceOnUse"><stop stop-color="#B974FF"/><stop offset=".607" stop-color="#932EFA"/><stop offset="1" stop-color="#6104C0"/></linearGradient><linearGradient id="b" x1=".705" x2="15.584" y1="31.339" y2="30.806" gradientUnits="userSpaceOnUse"><stop stop-color="#6104C0"/><stop offset=".393" stop-color="#932EFA"/><stop offset="1" stop-color="#B974FF"/></linearGradient><linearGradient id="c" x1=".691" x2="11.808" y1="30.936" y2="30.538" gradientUnits="userSpaceOnUse"><stop stop-color="#6104C0"/><stop offset=".393" stop-color="#932EFA"/><stop offset="1" stop-color="#B974FF"/></linearGradient><linearGradient id="d" x1="5.037" x2="4.658" y1="33.72" y2="21.878" gradientUnits="userSpaceOnUse"><stop stop-color="#6104C0"/><stop offset=".393" stop-color="#932EFA"/><stop offset="1" stop-color="#B974FF"/></linearGradient><linearGradient id="e" x1="0" x2="22.002" y1="13.341" y2="13.341" gradientUnits="userSpaceOnUse"><stop stop-color="#0437B9"/><stop offset=".561" stop-color="#2E68FD"/><stop offset="1" stop-color="#5E8BFC"/></linearGradient><linearGradient id="f" x1="10.8" x2="16.542" y1="13.918" y2="10.414" gradientUnits="userSpaceOnUse"><stop stop-color="#5E8BFC"/><stop offset=".2" stop-color="#6B94FB"/><stop offset=".423" stop-color="#2E68FD"/><stop offset="1" stop-color="#0437B9"/></linearGradient><linearGradient id="g" x1="1.835" x2="11.072" y1="15.457" y2="9.82" gradientUnits="userSpaceOnUse"><stop stop-color="#0437B9"/><stop offset=".393" stop-color="#2E68FD"/><stop offset="1" stop-color="#5E8BFC"/></linearGradient><linearGradient id="h" x1="18.052" x2="18.052" y1="33.417" y2="22.242" gradientUnits="userSpaceOnUse"><stop stop-color="#5E8BFC"/><stop offset=".439" stop-color="#2E68FD"/><stop offset="1" stop-color="#0437B9"/></linearGradient><linearGradient id="i" x1="19.812" x2="19.812" y1="25.412" y2="20.972" gradientUnits="userSpaceOnUse"><stop stop-color="#5E8BFC"/><stop offset=".439" stop-color="#2E68FD"/><stop offset="1" stop-color="#0437B9"/></linearGradient></defs></svg>